<?xml version="1.0" standalone="no"?>
<!DOCTYPE svg PUBLIC "-//W3C//DTD SVG 20010904//EN" "http://www.w3.org/TR/2001/REC-SVG-20010904/DTD/svg10.dtd">
<!-- Created using Krita: https://krita.org -->
<svg xmlns="http://www.w3.org/2000/svg" 
    xmlns:xlink="http://www.w3.org/1999/xlink"
    xmlns:krita="http://krita.org/namespaces/svg/krita"
    xmlns:sodipodi="http://sodipodi.sourceforge.net/DTD/sodipodi-0.dtd"
    width="864pt"
    height="864pt"
    viewBox="0 0 864 864">
<defs/>
<path id="shape0" transform="matrix(2.3952672229677 0 0 1 -27.3805714952803 403.784577516566)" fill="none" stroke="#ffffff" stroke-width="1" stroke-linecap="square" stroke-linejoin="miter" stroke-miterlimit="2" d="M0 0"/><path id="shape1" transform="matrix(1.15772685852188 0 0 1 45.2107728751362 545.264569801321)" fill="none" stroke="#ffffff" stroke-width="1" stroke-linecap="square" stroke-linejoin="bevel" d="M1.08 0.36L142.2 0L142.2 39.96L101.88 55.8L101.528 135.305L137.166 147.014L137.675 182.143L1.23214 182.143L1.23214 148.032L41.9615 134.286L40.68 56.88L0 39.96L1.08 0.36"/><path id="shape2" transform="matrix(2.3952672229677 0 0 1 221.999900757771 383.43929156782)" fill="none" stroke="#ffffff" stroke-width="1" stroke-linecap="square" stroke-linejoin="bevel" d="M0 159.554L0.254558 197.483L189.035 12.1531C188.818 7.23796 188.638 5.9656 188.658 0C160.552 25.4636 67.2308 119.729 54.3951 129.41C52.3203 127.893 37.3823 128.407 35.0069 128.33L0 159.554"/><path id="shape3" transform="matrix(2.3952672229677 0 0 1 50.6107619870227 493.589602409487)" fill="none" stroke="#ffffff" stroke-width="1" stroke-linecap="square" stroke-linejoin="bevel" d="M0 43.74L66.4764 44.835L97.9933 18.54C90.9293 16.02 62.1103 18.3026 55.3121 17.31C55.6077 12.4989 55.9463 4.23827 56.1357 0C44.9086 8.74799 26.1967 23.328 2.84217e-14 43.74Z"/><path id="shape4" transform="matrix(2.3952672229677 0 0 1 208.620049795316 496.30457132629)" fill="none" stroke="#ffffff" stroke-width="1" stroke-linecap="square" stroke-linejoin="bevel" d="M0 192.166L0 231.406L193.829 46.08L193.829 0L0 192.166"/><path id="shape5" transform="matrix(2.3952672229677 0 0 1 171.70042615318 479.087538357213)" fill="none" stroke="#ffffff" stroke-width="1" stroke-linecap="square" stroke-linejoin="bevel" d="M14.3472 205.122L209.398 9.1641C201.931 5.76999 194.082 3.39411 186.615 0C103.395 87.9576 41.1903 153.442 0 196.453C0.154328 196.599 4.93673 199.489 14.3472 205.122Z"/><path id="shape6" transform="matrix(2.38235246181398 0 0 0.99425312451846 169.04992264027 423.824155878192)" fill="none" stroke="#ffffff" stroke-width="1" stroke-linecap="square" stroke-linejoin="bevel" d="M0.531375 180.44L0 250.443L188.328 51.135C188.486 35.39 189.241 12.7045 188.89 0C185.927 0.796456 130.573 54.3037 22.8301 160.522C16.865 166.864 9.43212 173.503 0.531375 180.44Z"/><path id="shape0" transform="matrix(2.39526718981683 0 0 0.999999986159846 76.2994275342042 237.464592118602)" fill="none" stroke="#ffffff" stroke-width="1" stroke-linecap="square" stroke-linejoin="miter" stroke-miterlimit="2" d="M0 0"/><path id="shape1" transform="matrix(1.15772684249876 0 0 0.999999986159846 189.210768461992 324.224585842799)" fill="none" stroke="#ffffff" stroke-width="1" stroke-linecap="square" stroke-linejoin="bevel" d="M1.08 0.36L142.2 0L142.2 39.96L101.88 55.8L101.528 135.305L137.166 147.014L137.675 182.143L1.23214 182.143L1.23214 148.032L41.9615 134.286L40.68 56.88L0 39.96L1.08 0.36"/><path id="shape2" transform="matrix(2.39526718981683 0 0 0.999999986159846 365.999893897839 142.478014660174)" fill="none" stroke="#ffffff" stroke-width="1" stroke-linecap="square" stroke-linejoin="bevel" d="M0 179.475L0.254558 217.405L189.035 32.0744L189.035 0L0 179.475"/><path id="shape3" transform="matrix(2.39526718981683 0 0 0.999999986159846 194.610757499143 136.289607241542)" fill="none" stroke="#ffffff" stroke-width="1" stroke-linecap="square" stroke-linejoin="bevel" d="M0 180L66.4764 181.095L260.079 0.588121L203.652 0Z"/><path id="shape4" transform="matrix(2.39526718981683 0 0 0.999999986159846 352.620043120563 275.264588045381)" fill="none" stroke="#ffffff" stroke-width="1" stroke-linecap="square" stroke-linejoin="bevel" d="M0 192.166L0 231.406L193.829 46.08L193.829 0L0 192.166"/><path id="shape5" transform="matrix(2.39526718981683 0 0 0.999999986159846 315.7004199894 258.04755531459)" fill="none" stroke="#ffffff" stroke-width="1" stroke-linecap="square" stroke-linejoin="bevel" d="M14.3472 205.122L209.398 9.1641C201.931 5.76999 194.082 3.39411 186.615 0C103.395 87.9576 41.1903 153.442 0 196.453C0.154328 196.599 4.93673 199.489 14.3472 205.122Z"/><path id="shape6" transform="matrix(2.38235242884186 0 0 0.994253110757844 313.049916513174 202.784173600423)" fill="none" stroke="#ffffff" stroke-width="1" stroke-linecap="square" stroke-linejoin="bevel" d="M0.531375 180.44L0 250.443L188.328 51.135C188.486 35.39 189.241 12.7045 188.89 0C185.927 0.796456 130.573 54.3037 22.8301 160.522C16.865 166.864 9.43212 173.503 0.531375 180.44Z"/>
</svg>
